<?xml version="1.0" encoding="UTF-8" standalone="no"?>
<svg
   xmlns:dc="http://purl.org/dc/elements/1.1/"
   xmlns:cc="http://creativecommons.org/ns#"
   xmlns:rdf="http://www.w3.org/1999/02/22-rdf-syntax-ns#"
   xmlns:svg="http://www.w3.org/2000/svg"
   xmlns="http://www.w3.org/2000/svg"
   viewBox="0 0 42.666668 42.666668"
   height="42.666668"
   width="42.666668"
   xml:space="preserve"
   id="svg2"
   version="1.1"><metadata
     id="metadata8"><rdf:RDF><cc:Work
         rdf:about=""><dc:format>image/svg+xml</dc:format><dc:type
           rdf:resource="http://purl.org/dc/dcmitype/StillImage" /></cc:Work></rdf:RDF></metadata><defs
     id="defs6"><clipPath
       id="clipPath18"
       clipPathUnits="userSpaceOnUse"><path
         id="path16"
         d="M 7.061,23.365 C 5.569,22.734 4.309,21.687 3.416,20.366 v 0 C 2.97,19.706 2.615,18.975 2.373,18.194 v 0 C 2.13,17.415 2,16.584 2,15.732 v 0 -7.718 c 2.866,0 5.189,2.324 5.189,5.19 v 0 2.528 c 0,0.435 0.087,0.835 0.242,1.204 v 0 c 0.233,0.553 0.629,1.031 1.125,1.365 v 0 c 0.248,0.167 0.52,0.298 0.809,0.388 v 0 c 0.288,0.09 0.594,0.139 0.921,0.139 v 0 c 0.435,0 0.835,-0.086 1.204,-0.242 v 0 c 0.553,-0.233 1.031,-0.629 1.365,-1.124 v 0 c 0.167,-0.248 0.299,-0.519 0.388,-0.808 v 0 c 0.09,-0.289 0.139,-0.596 0.139,-0.922 v 0 c 0,0 0.031,-0.376 0.046,-0.377 v 0 0.377 c 0,0.852 0.131,1.683 0.373,2.462 v 0 c 0.243,0.781 0.597,1.512 1.044,2.172 v 0 c 0.335,0.496 0.722,0.954 1.154,1.365 v 0 c -0.334,0.319 -0.694,0.611 -1.079,0.87 v 0 c -0.66,0.446 -1.39,0.801 -2.171,1.044 v 0 c -0.78,0.243 -1.611,0.372 -2.463,0.372 v 0 C 9.148,24.018 8.052,23.785 7.061,23.365" /></clipPath><linearGradient
       id="linearGradient28"
       spreadMethod="pad"
       gradientTransform="matrix(16.571766,0,0,-16.571766,2,16.016098)"
       gradientUnits="userSpaceOnUse"
       y2="0"
       x2="1"
       y1="0"
       x1="0"><stop
         id="stop24"
         offset="0"
         style="stop-opacity:1;stop-color:#fa48e4" /><stop
         id="stop26"
         offset="1"
         style="stop-opacity:1;stop-color:#a000ff" /></linearGradient><clipPath
       id="clipPath38"
       clipPathUnits="userSpaceOnUse"><path
         id="path36"
         d="m 18.489,23.365 c -0.932,-0.393 -1.772,-0.95 -2.49,-1.634 v 0 c 0.816,-0.776 1.473,-1.717 1.921,-2.773 v 0 c 0.42,-0.993 0.652,-2.089 0.652,-3.226 v 0 -0.63 c 0.014,0.021 0.045,0.63 0.045,0.63 v 0 c 10e-4,0.435 0.087,0.835 0.242,1.204 v 0 c 0.234,0.553 0.631,1.031 1.125,1.365 v 0 c 0.248,0.167 0.52,0.298 0.808,0.388 v 0 c 0.289,0.09 0.596,0.139 0.922,0.139 v 0 c 0.434,0 0.835,-0.086 1.205,-0.242 v 0 c 0.552,-0.233 1.03,-0.629 1.364,-1.124 v 0 c 0.167,-0.248 0.299,-0.519 0.389,-0.808 v 0 c 0.09,-0.289 0.138,-0.596 0.138,-0.922 v 0 -2.561 c 0,-2.865 2.324,-5.189 5.19,-5.189 v 0 7.75 c 0,1.137 -0.232,2.233 -0.652,3.226 v 0 c -0.631,1.49 -1.678,2.75 -3,3.643 v 0 c -0.66,0.446 -1.39,0.801 -2.171,1.044 v 0 c -0.781,0.243 -1.61,0.372 -2.463,0.372 v 0 c -1.137,0.001 -2.234,-0.232 -3.225,-0.652" /></clipPath><linearGradient
       id="linearGradient48"
       spreadMethod="pad"
       gradientTransform="matrix(14.000878,0,0,-14.000878,15.999122,16)"
       gradientUnits="userSpaceOnUse"
       y2="0"
       x2="1"
       y1="0"
       x1="0"><stop
         id="stop44"
         offset="0"
         style="stop-opacity:1;stop-color:#23dbc3" /><stop
         id="stop46"
         offset="1"
         style="stop-opacity:1;stop-color:#00aee7" /></linearGradient><clipPath
       id="clipPath58"
       clipPathUnits="userSpaceOnUse"><path
         id="path56"
         d="m 14.845,20.366 c -0.447,-0.66 -0.801,-1.391 -1.044,-2.172 v 0 c -0.242,-0.779 -0.373,-1.61 -0.373,-2.462 v 0 -7.718 c 2.841,0 5.144,2.304 5.144,5.144 v 0 2.574 c 0,1.137 -0.232,2.233 -0.652,3.226 v 0 c -0.448,1.056 -1.105,1.997 -1.921,2.773 v 0 C 15.567,21.32 15.18,20.862 14.845,20.366" /></clipPath><linearGradient
       id="linearGradient70"
       spreadMethod="pad"
       gradientTransform="matrix(0,-10.478799,-10.478799,0,16.000004,18.248707)"
       gradientUnits="userSpaceOnUse"
       y2="0"
       x2="1"
       y1="0"
       x1="0"><stop
         id="stop64"
         offset="0"
         style="stop-opacity:1;stop-color:#02ae26" /><stop
         id="stop66"
         offset="0.997326"
         style="stop-opacity:1;stop-color:#024326" /><stop
         id="stop68"
         offset="1"
         style="stop-opacity:1;stop-color:#024326" /></linearGradient></defs><g
     transform="matrix(1.3333333,0,0,-1.3333333,0,42.666667)"
     id="g10"><g
       id="g12"><g
         clip-path="url(#clipPath18)"
         id="g14"><g
           id="g20"><g
             id="g22"><path
               id="path30"
               style="fill:url(#linearGradient28);stroke:none"
               d="M 7.061,23.365 C 5.569,22.734 4.309,21.687 3.416,20.366 v 0 C 2.97,19.706 2.615,18.975 2.373,18.194 v 0 C 2.13,17.415 2,16.584 2,15.732 v 0 -7.718 c 2.866,0 5.189,2.324 5.189,5.19 v 0 2.528 c 0,0.435 0.087,0.835 0.242,1.204 v 0 c 0.233,0.553 0.629,1.031 1.125,1.365 v 0 c 0.248,0.167 0.52,0.298 0.809,0.388 v 0 c 0.288,0.09 0.594,0.139 0.921,0.139 v 0 c 0.435,0 0.835,-0.086 1.204,-0.242 v 0 c 0.553,-0.233 1.031,-0.629 1.365,-1.124 v 0 c 0.167,-0.248 0.299,-0.519 0.388,-0.808 v 0 c 0.09,-0.289 0.139,-0.596 0.139,-0.922 v 0 c 0,0 0.031,-0.376 0.046,-0.377 v 0 0.377 c 0,0.852 0.131,1.683 0.373,2.462 v 0 c 0.243,0.781 0.597,1.512 1.044,2.172 v 0 c 0.335,0.496 0.722,0.954 1.154,1.365 v 0 c -0.334,0.319 -0.694,0.611 -1.079,0.87 v 0 c -0.66,0.446 -1.39,0.801 -2.171,1.044 v 0 c -0.78,0.243 -1.611,0.372 -2.463,0.372 v 0 C 9.148,24.018 8.052,23.785 7.061,23.365" /></g></g></g></g><g
       id="g32"><g
         clip-path="url(#clipPath38)"
         id="g34"><g
           id="g40"><g
             id="g42"><path
               id="path50"
               style="fill:url(#linearGradient48);stroke:none"
               d="m 18.489,23.365 c -0.932,-0.393 -1.772,-0.95 -2.49,-1.634 v 0 c 0.816,-0.776 1.473,-1.717 1.921,-2.773 v 0 c 0.42,-0.993 0.652,-2.089 0.652,-3.226 v 0 -0.63 c 0.014,0.021 0.045,0.63 0.045,0.63 v 0 c 10e-4,0.435 0.087,0.835 0.242,1.204 v 0 c 0.234,0.553 0.631,1.031 1.125,1.365 v 0 c 0.248,0.167 0.52,0.298 0.808,0.388 v 0 c 0.289,0.09 0.596,0.139 0.922,0.139 v 0 c 0.434,0 0.835,-0.086 1.205,-0.242 v 0 c 0.552,-0.233 1.03,-0.629 1.364,-1.124 v 0 c 0.167,-0.248 0.299,-0.519 0.389,-0.808 v 0 c 0.09,-0.289 0.138,-0.596 0.138,-0.922 v 0 -2.561 c 0,-2.865 2.324,-5.189 5.19,-5.189 v 0 7.75 c 0,1.137 -0.232,2.233 -0.652,3.226 v 0 c -0.631,1.49 -1.678,2.75 -3,3.643 v 0 c -0.66,0.446 -1.39,0.801 -2.171,1.044 v 0 c -0.781,0.243 -1.61,0.372 -2.463,0.372 v 0 c -1.137,0.001 -2.234,-0.232 -3.225,-0.652" /></g></g></g></g><g
       id="g52"><g
         clip-path="url(#clipPath58)"
         id="g54"><g
           id="g60"><g
             id="g62"><path
               id="path72"
               style="fill:url(#linearGradient70);stroke:none"
               d="m 14.845,20.366 c -0.447,-0.66 -0.801,-1.391 -1.044,-2.172 v 0 c -0.242,-0.779 -0.373,-1.61 -0.373,-2.462 v 0 -7.718 c 2.841,0 5.144,2.304 5.144,5.144 v 0 2.574 c 0,1.137 -0.232,2.233 -0.652,3.226 v 0 c -0.448,1.056 -1.105,1.997 -1.921,2.773 v 0 C 15.567,21.32 15.18,20.862 14.845,20.366" /></g></g></g></g></g></svg>